<svg width="40" height="40" viewBox="0 0 40 40" fill="none" xmlns="http://www.w3.org/2000/svg">
<path d="M25.58 4.15991L33.7 4.99991L31.5 25.5999L26.86 35.8399L6.54 31.5999L4.5 22.1999L16.06 19.7999L13.5 8.03991L21.5 6.35991L24.06 18.1199L25.58 4.15991ZM19.14 24.4399C19.5667 24.0666 19.7 23.5866 19.54 22.9999C19.4867 22.6799 19.2067 22.4132 18.7 22.1999C18.5667 22.1466 18.4333 22.1199 18.3 22.1199C17.5267 22.1466 17.0733 22.3866 16.94 22.8399C16.8333 23.2666 16.8333 23.6399 16.94 23.9599C17.0733 24.2799 17.2867 24.4799 17.58 24.5599C18.2733 24.7999 18.7933 24.7599 19.14 24.4399ZM25.02 25.0799C25.3667 24.4666 25.42 23.9599 25.18 23.5599C24.8867 23.0799 24.42 22.8399 23.78 22.8399C23.4867 22.8399 23.2067 23.0266 22.94 23.3999C22.78 23.5599 22.6867 23.7599 22.66 23.9999C22.5533 24.6666 22.7 25.0932 23.1 25.2799C23.5267 25.4666 23.9133 25.5466 24.26 25.5199C24.6067 25.4666 24.86 25.3199 25.02 25.0799Z" fill="white"/>
</svg>
