<svg width="30" height="30" viewBox="0 0 30 30" fill="none" xmlns="http://www.w3.org/2000/svg">
<path d="M21.2173 23.8452C17.6773 27.2444 12.1094 27.1901 8.781 23.7238" stroke="#808080" stroke-width="3.4424" stroke-linecap="round"/>
<path d="M13.6878 3.54444C14.1383 2.3269 15.8604 2.3269 16.3109 3.54444L17.7979 7.563C17.9395 7.94579 18.2413 8.24759 18.6241 8.38924L22.6427 9.87624C23.8602 10.3268 23.8602 12.0488 22.6427 12.4994L18.6241 13.9864C18.2413 14.128 17.9395 14.4298 17.7979 14.8126L16.3109 18.8312C15.8604 20.0487 14.1383 20.0487 13.6878 18.8312L12.2008 14.8126C12.0591 14.4298 11.7573 14.128 11.3745 13.9864L7.35596 12.4994C6.13843 12.0488 6.13843 10.3268 7.35596 9.87624L11.3745 8.38924C11.7573 8.24759 12.0591 7.94579 12.2008 7.563L13.6878 3.54444Z" fill="#808080"/>
</svg>
