<svg width="40" height="40" viewBox="0 0 40 40" fill="none" xmlns="http://www.w3.org/2000/svg">
<path fill-rule="evenodd" clip-rule="evenodd" d="M18.6136 5.92142C19.4703 5.42253 20.5292 5.42338 21.3851 5.92366L33.5138 13.0128C34.4342 13.5507 35 14.5367 35 15.6028L35 28.0303C35 29.1348 34.1046 30.0303 33 30.0303L28 30.0478C26.8954 30.0478 26 29.1348 26 28.0303L26 21.023C26 20.3978 25.6664 19.8201 25.1249 19.5075L20.9999 17.1261C20.3812 16.7688 19.6188 16.7688 19 17.1261L14.875 19.5075C14.3336 19.8201 14 20.3978 14 21.023L14 28.0303C14 29.1348 13.1046 30.0302 12 30.0302H7.00003C5.89546 30.0302 5.00003 29.1348 5.00003 28.0302L5 15.5736C5 14.5058 5.56758 13.5185 6.49033 12.9811L18.6136 5.92142Z" fill="white"/>
<path d="M21.471 22.3773C21.471 21.6179 22.0866 21.0023 22.846 21.0023C23.6054 21.0023 24.221 21.6179 24.221 22.3773C24.221 23.1367 23.6054 23.7523 22.846 23.7523C22.0866 23.7523 21.471 23.1367 21.471 22.3773Z" fill="white"/>
</svg>
