<svg width="18" height="18" viewBox="0 0 18 18" fill="none" xmlns="http://www.w3.org/2000/svg">
<path fill-rule="evenodd" clip-rule="evenodd" d="M4.625 7.25C4.625 4.6666 6.61214 2.625 9 2.625C11.3879 2.625 13.375 4.6666 13.375 7.25C13.375 9.21838 12.2489 11.0097 11.0356 12.3565C10.4371 13.0209 9.8368 13.5554 9.38589 13.9237C9.23915 14.0435 9.10873 14.1454 9 14.2279C8.89126 14.1454 8.76085 14.0435 8.61411 13.9237C8.1632 13.5554 7.5629 13.0209 6.96436 12.3565C5.75108 11.0097 4.625 9.21838 4.625 7.25ZM8.65171 15.519C8.65191 15.5191 8.65208 15.5192 9 15L8.65208 15.5192C8.86258 15.6603 9.13742 15.6603 9.34792 15.5192L9 15C9.34792 15.5192 9.34809 15.5191 9.34829 15.519L9.34877 15.5186L9.35007 15.5178L9.35404 15.5151L9.3673 15.5061C9.37848 15.4984 9.39427 15.4875 9.41437 15.4735C9.45457 15.4453 9.51204 15.4045 9.58432 15.3515C9.72881 15.2456 9.93285 15.0909 10.1766 14.8918C10.6632 14.4944 11.3129 13.9163 11.9644 13.1931C13.2511 11.7648 14.625 9.68111 14.625 7.25C14.625 4.03441 12.135 1.375 9 1.375C5.86501 1.375 3.375 4.03441 3.375 7.25C3.375 9.68111 4.74892 11.7648 6.03564 13.1931C6.6871 13.9163 7.3368 14.4944 7.82339 14.8918C8.06715 15.0909 8.27119 15.2456 8.41568 15.3515C8.48796 15.4045 8.54543 15.4453 8.58563 15.4735C8.60573 15.4875 8.62152 15.4984 8.6327 15.5061L8.64596 15.5151L8.64993 15.5178L8.65123 15.5186L8.65171 15.519ZM9 9C10.1046 9 11 8.10457 11 7C11 5.89543 10.1046 5 9 5C7.89543 5 7 5.89543 7 7C7 8.10457 7.89543 9 9 9Z" fill="white"/>
</svg>
