<svg width="40" height="40" viewBox="0 0 40 40" fill="none" xmlns="http://www.w3.org/2000/svg">
<path fill-rule="evenodd" clip-rule="evenodd" d="M15.8571 4.89608C13.7232 4.32431 11.5299 5.59065 10.9581 7.72451L6.1302 25.7425C5.55843 27.8764 6.82476 30.0698 8.95863 30.6415L23.203 34.4583C25.3369 35.0301 27.5302 33.7637 28.102 31.6299L32.9299 13.6118C33.5017 11.478 32.2354 9.28462 30.1015 8.71285L15.8571 4.89608ZM16.1231 10.8815C15.5832 10.7369 15.0283 11.0572 14.8837 11.5971C14.739 12.1369 15.0594 12.6918 15.5992 12.8365L26.3547 15.7184C26.8946 15.8631 27.4495 15.5427 27.5941 15.0028C27.7388 14.463 27.4184 13.9081 26.8786 13.7634L16.1231 10.8815ZM13.5881 16.2279C13.7327 15.6881 14.2876 15.3677 14.8275 15.5124L25.583 18.3943C26.1228 18.5389 26.4432 19.0938 26.2985 19.6337C26.1539 20.1735 25.599 20.4939 25.0591 20.3493L14.3037 17.4673C13.7638 17.3227 13.4434 16.7678 13.5881 16.2279ZM13.5013 20.0622C12.9615 19.9175 12.4066 20.2379 12.2619 20.7777C12.1173 21.3176 12.4376 21.8725 12.9775 22.0171L20.4705 24.0249C21.0104 24.1696 21.5653 23.8492 21.7099 23.3093C21.8546 22.7695 21.5342 22.2146 20.9943 22.0699L13.5013 20.0622Z" fill="white"/>
</svg>
