<svg width="40" height="40" viewBox="0 0 40 40" fill="none" xmlns="http://www.w3.org/2000/svg">
<path fill-rule="evenodd" clip-rule="evenodd" d="M16.0028 5.48243C13.9536 4.93335 11.8473 6.14943 11.2983 8.19863L6.6619 25.5017C6.11282 27.5509 7.3289 29.6572 9.3781 30.2063L23.0573 33.8716C25.1065 34.4207 27.2128 33.2046 27.7619 31.1554L32.3982 13.8523C32.9473 11.8031 31.7312 9.69683 29.682 9.14775L16.0028 5.48243ZM16.2583 11.2304C15.7398 11.0914 15.207 11.3991 15.068 11.9175C14.9291 12.436 15.2368 12.9688 15.7552 13.1078L26.0839 15.8753C26.6024 16.0142 27.1352 15.7066 27.2742 15.1882C27.4131 14.6697 27.1054 14.1368 26.587 13.9979L16.2583 11.2304ZM13.8239 16.3646C13.9628 15.8462 14.4957 15.5386 15.0141 15.6775L25.3428 18.445C25.8612 18.584 26.1689 19.1168 26.03 19.6353C25.8911 20.1537 25.3582 20.4614 24.8397 20.3224L14.511 17.5549C13.9926 17.416 13.6849 16.8831 13.8239 16.3646ZM13.7405 20.0467C13.2221 19.9078 12.6892 20.2155 12.5503 20.7339C12.4114 21.2523 12.7191 21.7852 13.2375 21.9241L20.4332 23.8522C20.9516 23.9911 21.4845 23.6835 21.6234 23.165C21.7623 22.6466 21.4547 22.1137 20.9362 21.9748L13.7405 20.0467Z" fill="white"/>
</svg>
