<svg width="40" height="40" viewBox="0 0 40 40" fill="none" xmlns="http://www.w3.org/2000/svg">
<path opacity="0.5" fill-rule="evenodd" clip-rule="evenodd" d="M25.7987 34.8999C24.3319 36.0419 22.6588 36.9763 20.5655 37.103C20.1889 37.1257 19.8111 37.1257 19.4345 37.103C17.3412 36.9763 15.6681 36.0419 14.2013 34.8999C12.8389 33.8391 11.3434 32.3434 9.64196 30.6418C9.5948 30.5946 9.54749 30.5473 9.50001 30.4998C9.45253 30.4523 9.40521 30.405 9.35805 30.3578C7.65635 28.6564 6.16065 27.1609 5.09993 25.7986C3.95788 24.3318 3.02344 22.6586 2.89682 20.5654C2.87403 20.1887 2.87403 19.811 2.89682 19.4344C3.02344 17.3411 3.95788 15.668 5.09993 14.2012C6.16065 12.8389 7.65635 11.3434 9.35805 9.64191C9.40521 9.59475 9.45253 9.54743 9.50001 9.49996C9.54749 9.45248 9.5948 9.40516 9.64196 9.35799C11.3434 7.65631 12.8389 6.16061 14.2013 5.0999C15.6681 3.95786 17.3412 3.02342 19.4345 2.8968C19.8111 2.87402 20.1889 2.87402 20.5655 2.8968C22.6588 3.02342 24.3319 3.95786 25.7987 5.0999C27.1611 6.16062 28.6566 7.65632 30.358 9.35801C30.4052 9.40517 30.4525 9.45248 30.5 9.49995C30.5475 9.54743 30.5948 9.59474 30.6419 9.64189C32.3436 11.3434 33.8393 12.8388 34.9001 14.2012C36.0421 15.668 36.9766 17.3411 37.1032 19.4344C37.126 19.811 37.126 20.1887 37.1032 20.5654C36.9766 22.6586 36.0421 24.3318 34.9001 25.7986C33.8393 27.1609 32.3436 28.6564 30.6419 30.3579C30.5948 30.405 30.5475 30.4523 30.5 30.4998C30.4525 30.5473 30.4052 30.5946 30.358 30.6418C28.6566 32.3434 27.1611 33.8391 25.7987 34.8999ZM6.31731 20.3585C6.45332 22.607 8.27657 24.4303 11.9231 28.0767C15.5696 31.7232 17.3929 33.5465 19.6414 33.6825C19.8802 33.6969 20.1198 33.6969 20.3586 33.6825C22.6071 33.5465 24.4304 31.7232 28.0769 28.0767C31.7234 24.4303 33.5467 22.607 33.6827 20.3585C33.6971 20.1196 33.6971 19.8801 33.6827 19.6413C33.5467 17.3927 31.7234 15.5695 28.0769 11.923C24.4304 8.27653 22.6071 6.45328 20.3586 6.31727C20.1198 6.30282 19.8802 6.30282 19.6414 6.31727C17.3929 6.45328 15.5696 8.27653 11.9231 11.923C8.27657 15.5695 6.45332 17.3927 6.31731 19.6413C6.30286 19.8801 6.30286 20.1196 6.31731 20.3585Z" fill="white"/>
<path d="M10.8618 20.0001C10.8618 19.6268 11.1259 19.3075 11.489 19.2207C13.3304 18.7803 14.7804 18.0912 15.9979 17.0126C16.3562 16.6952 16.6949 16.3565 17.0123 15.9982C18.0908 14.7808 18.78 13.3307 19.2204 11.4893C19.3072 11.1263 19.6265 10.8622 19.9998 10.8622C20.3731 10.8622 20.6924 11.1263 20.7792 11.4893C21.2196 13.3307 21.9088 14.7808 22.9873 15.9982C23.3047 16.3565 23.6435 16.6952 24.0017 17.0126C25.2192 18.0912 26.6692 18.7803 28.5106 19.2207C28.8737 19.3075 29.1378 19.6268 29.1378 20.0001C29.1378 20.3734 28.8737 20.6927 28.5106 20.7795C26.6692 21.2199 25.2192 21.9091 24.0017 22.9876C23.6435 23.305 23.3047 23.6437 22.9873 24.002C21.9088 25.2194 21.2196 26.6695 20.7792 28.5109C20.6924 28.8739 20.3731 29.138 19.9998 29.138C19.6265 29.138 19.3072 28.8739 19.2204 28.5109C18.78 26.6695 18.0908 25.2194 17.0123 24.002C16.6949 23.6437 16.3562 23.305 15.9979 22.9876C14.7804 21.9091 13.3304 21.2199 11.489 20.7795C11.1259 20.6927 10.8618 20.3734 10.8618 20.0001Z" fill="white"/>
</svg>
