<svg width="100%" height="100%" viewBox="0 0 78 30" fill="none" xmlns="http://www.w3.org/2000/svg">
<path fill-rule="evenodd" clip-rule="evenodd" d="M11.6287 0.361488L7.16665 2.92806L12.9266 6.30195L18.7953 2.92404L14.3373 0.361488C13.4989 -0.120496 12.4671 -0.120496 11.6287 0.361488ZM5.81232 11.5034V17.0823L0 13.7406V8.60744C0 7.64347 0.515934 6.7518 1.35433 6.26982L5.81635 3.70325L17.6264 10.6237C17.8521 10.7523 17.8521 11.0776 17.6264 11.2061L12.987 13.8771L7.33997 10.6278C6.66281 10.2382 5.81635 10.7242 5.81232 11.5034ZM14.2723 7.09121L14.2688 7.08919V7.09321L14.2723 7.09121ZM14.2723 7.09121L19.3153 10.0454C19.9884 10.439 19.9844 11.407 19.3072 11.7966L13.6561 15.05V20.4442C13.6561 20.7053 13.9423 20.8699 14.168 20.7334L25.966 13.7366V8.61146C25.966 7.64749 25.4501 6.75582 24.6117 6.27383L20.1496 3.70726L14.2723 7.09121ZM20.1537 25.3363V18.7572L25.97 15.307V20.4321C25.97 21.3961 25.4541 22.2878 24.6157 22.7698L20.1537 25.3363ZM0 15.303L5.81232 18.6448H5.80829V25.3323L1.35433 22.7698C0.515934 22.2878 0 21.3961 0 20.4321V15.303ZM14.3494 22.1954L18.7953 19.5605V26.1115L14.3373 28.6781C13.4989 29.1601 12.4671 29.1601 11.6287 28.6781L7.16665 26.1115V18.6247V12.6722C7.16665 12.4111 7.4488 12.2504 7.67452 12.379L12.3018 15.0419V21.0346C12.3018 22.0829 13.4465 22.7296 14.3494 22.1954ZM36.7975 8.97964V21.9547H39.1248V8.97964H43.9593V6.99193H31.9631V8.97964H36.7975ZM43.9792 17.1704H52.1898C52.2097 17.0006 52.2098 16.6809 52.2098 16.3913C52.2098 13.0851 50.4118 10.9476 47.1456 10.9476C43.8794 10.9476 41.8717 13.3348 41.8717 16.601C41.8717 19.8673 43.7495 22.2745 47.1456 22.2745C49.9524 22.2745 51.5205 20.7263 52.0899 18.6786H49.9923C49.8025 19.3878 49.0734 20.6064 47.1855 20.6064C45.068 20.6064 44.0192 18.9483 43.9792 17.1704ZM47.0757 12.6256C48.9036 12.6256 50.0722 13.8742 50.0722 15.5522H43.9792C44.0991 13.7943 45.3577 12.6256 47.0757 12.6256ZM53.758 18.399H55.8256C55.9055 19.6376 56.6646 20.5964 58.6523 20.5964C60.4502 20.5964 60.9297 19.7974 60.9297 19.0283C60.9297 17.8133 59.7527 17.5777 58.5045 17.3279L58.5044 17.3279C58.3776 17.3025 58.25 17.277 58.1229 17.2503C56.2551 16.8108 54.1275 16.2614 54.1275 14.044C54.1275 12.2061 55.6158 10.9676 58.1928 10.9676C61.1195 10.9676 62.5278 12.5357 62.6777 14.3836H60.6001C60.4502 13.5646 60.0107 12.6256 58.2328 12.6256C56.8544 12.6256 56.2651 13.165 56.2651 13.9641C56.2651 14.9512 57.2072 15.1466 58.4782 15.4101L58.4783 15.4102L58.4785 15.4102C58.635 15.4427 58.7966 15.4762 58.962 15.5123C60.9297 15.9718 63.0672 16.5411 63.0672 18.9284C63.0672 20.996 61.4791 22.2545 58.6723 22.2545C55.426 22.2545 53.8179 20.5765 53.748 18.399H53.758ZM66.5632 18.399H64.4956H64.4856C64.5555 20.5765 66.1636 22.2545 69.4099 22.2545C72.2167 22.2545 73.8048 20.996 73.8048 18.9284C73.8048 16.5411 71.6673 15.9718 69.6996 15.5123C69.5341 15.4761 69.3725 15.4426 69.2158 15.4102C67.9448 15.1466 67.0027 14.9512 67.0027 13.9641C67.0027 13.165 67.592 12.6256 68.9704 12.6256C70.7484 12.6256 71.1878 13.5646 71.3377 14.3836H73.4153C73.2654 12.5357 71.8571 10.9676 68.9305 10.9676C66.3534 10.9676 64.8651 12.2061 64.8651 14.044C64.8651 16.2614 66.9927 16.8108 68.8605 17.2503C68.9876 17.277 69.115 17.3025 69.2417 17.3279L69.2421 17.3279C70.4903 17.5777 71.6673 17.8133 71.6673 19.0283C71.6673 19.7974 71.1879 20.5964 69.3899 20.5964C67.4022 20.5964 66.6431 19.6376 66.5632 18.399ZM75.9524 21.9649V6.99216H78V21.9649H75.9524Z" fill="currentColor"></path>
</svg>