<svg width="40" height="40" viewBox="0 0 40 40" fill="none" xmlns="http://www.w3.org/2000/svg">
<g filter="url(#filter0_dd_338_987)">
<path fillRule="evenodd" clip-rule="evenodd" d="M15.9426 34.841C12.8442 34.4992 10.3591 33.5666 8.35144 31.5405C6.49607 29.6656 5.50671 27.3863 5.23007 24.8034C5.07074 23.3108 5.02582 21.802 5.00802 20.3009C4.98149 18.2167 4.99709 16.1267 5.43493 14.0763C6.37935 9.66731 9.01654 6.80688 13.3598 5.56535C15.1118 5.06457 16.9248 5.00318 18.7319 5.00005C20.0982 4.99843 21.4636 5.03898 22.829 5.07968L23.4535 5.09811C24.6864 5.1341 25.8995 5.33734 27.0728 5.71503C31.1822 7.03628 33.6638 9.84754 34.5902 14.0427C34.9618 15.7263 34.9937 17.4422 34.998 19.1548L34.9988 19.2997L34.9989 19.3197C35.0035 21.3015 35.0082 23.2865 34.7024 25.2531C34.2257 28.3194 32.8215 30.8429 30.3008 32.7044C28.5322 34.0109 26.5079 34.6187 24.3533 34.8203C21.4414 35.0939 18.5252 35.0178 15.9398 34.8393L15.9426 34.841ZM11.0797 20.8681C11.904 19.5461 12.6351 18.3819 13.3756 17.5351C14.1537 16.6453 14.6214 16.6016 14.8438 16.6016C15.0662 16.6016 15.5339 16.6453 16.3121 17.5351C17.0526 18.3819 17.7836 19.5461 18.6079 20.8681L18.6504 20.9362L18.6504 20.9362C19.4228 22.1752 20.2848 23.5577 21.2181 24.6249C22.1309 25.6687 23.4375 26.7969 25.1563 26.7969C26.8751 26.7969 28.1818 25.6687 29.0945 24.6249C30.0278 23.5578 30.8898 22.1752 31.6622 20.9363L31.6622 20.9363L31.6622 20.9362L31.7047 20.8681L28.9204 19.1319C28.0961 20.4539 27.3651 21.6181 26.6246 22.4649C25.8464 23.3547 25.3787 23.3984 25.1563 23.3984C24.9339 23.3984 24.4662 23.3547 23.6881 22.4649C22.9476 21.6181 22.2165 20.4539 21.3922 19.1319L21.3497 19.0638C20.5773 17.8248 19.7153 16.4423 18.782 15.3751C17.8693 14.3313 16.5626 13.2031 14.8438 13.2031C13.125 13.2031 11.8184 14.3313 10.9056 15.3751C9.97228 16.4423 9.11031 17.8248 8.33788 19.0638L8.29539 19.1319L11.0797 20.8681Z" fill="white"/>
</g>
<defs>
<filter id="filter0_dd_338_987" x="3.56942" y="3.09256" width="32.8612" height="33.2252" filterUnits="userSpaceOnUse" color-interpolation-filters="sRGB">
<feFlood flood-opacity="0" result="BackgroundImageFix"/>
<feColorMatrix in="SourceAlpha" type="matrix" values="0 0 0 0 0 0 0 0 0 0 0 0 0 0 0 0 0 0 127 0" result="hardAlpha"/>
<feOffset dy="0.693537"/>
<feGaussianBlur stdDeviation="0.312092"/>
<feComposite in2="hardAlpha" operator="out"/>
<feColorMatrix type="matrix" values="0 0 0 0 0 0 0 0 0 0 0 0 0 0 0 0 0 0 0.12 0"/>
<feBlend mode="normal" in2="BackgroundImageFix" result="effect1_dropShadow_338_987"/>
<feColorMatrix in="SourceAlpha" type="matrix" values="0 0 0 0 0 0 0 0 0 0 0 0 0 0 0 0 0 0 127 0" result="hardAlpha"/>
<feOffset dy="-0.476861"/>
<feGaussianBlur stdDeviation="0.715291"/>
<feComposite in2="hardAlpha" operator="out"/>
<feColorMatrix type="matrix" values="0 0 0 0 1 0 0 0 0 1 0 0 0 0 1 0 0 0 0.05 0"/>
<feBlend mode="normal" in2="effect1_dropShadow_338_987" result="effect2_dropShadow_338_987"/>
<feBlend mode="normal" in="SourceGraphic" in2="effect2_dropShadow_338_987" result="shape"/>
</filter>
</defs>
</svg>
